<svg xmlns="http://www.w3.org/2000/svg" width="860" height="380" viewBox="0 0 860 380" role="img" aria-label="Merge queue entries that left without merging, per cent">
<style>
  .bg{fill:#ffffff} .fg{fill:#1f2328} .mut{fill:#59636e} .grid{stroke:#d1d9e0}
  .seg{stroke:#ffffff;stroke-width:1}
  .val{paint-order:stroke;stroke:#ffffff;stroke-width:3px;stroke-linejoin:round}
  .s0{fill:#2a78d6}
  @media (prefers-color-scheme: dark){
    .bg{fill:#0d1117} .fg{fill:#e6edf3} .mut{fill:#9198a1} .grid{stroke:#30363d}
    .seg{stroke:#0d1117} .val{stroke:#0d1117} .s0{fill:#3987e5}}
  text{font-family:-apple-system,BlinkMacSystemFont,"Segoe UI",Helvetica,Arial,sans-serif}
</style>
<rect class="bg" width="860" height="380"/>
<text class="fg" x="20" y="26" font-size="16" font-weight="600">Merge queue entries that left without merging, per cent</text>
<text class="mut" x="20" y="44" font-size="11">ejected over entered, summed across the week from GitHub’s merge-queue events; the line is where trunk-health starts to say so</text>
<line class="grid" x1="64" y1="324.0" x2="650.0" y2="324.0" stroke-width="1"/>
<text class="mut" x="56" y="327.0" font-size="10" text-anchor="end">0</text>
<line class="grid" x1="64" y1="270.8" x2="650.0" y2="270.8" stroke-width="1"/>
<text class="mut" x="56" y="273.8" font-size="10" text-anchor="end">10</text>
<line class="grid" x1="64" y1="217.6" x2="650.0" y2="217.6" stroke-width="1"/>
<text class="mut" x="56" y="220.6" font-size="10" text-anchor="end">20</text>
<line class="grid" x1="64" y1="164.4" x2="650.0" y2="164.4" stroke-width="1"/>
<text class="mut" x="56" y="167.4" font-size="10" text-anchor="end">30</text>
<line class="grid" x1="64" y1="111.2" x2="650.0" y2="111.2" stroke-width="1"/>
<text class="mut" x="56" y="114.2" font-size="10" text-anchor="end">40</text>
<line class="grid" x1="64" y1="58.0" x2="650.0" y2="58.0" stroke-width="1"/>
<text class="mut" x="56" y="61.0" font-size="10" text-anchor="end">50</text>
<line x1="64" y1="217.6" x2="650.0" y2="217.6" stroke="#D55E00" stroke-width="1.5" stroke-dasharray="5 4"/>
<text class="mut" x="656.0" y="220.6" font-size="10">reported above 20</text>
<text class="mut" x="93.3" y="342" font-size="10" text-anchor="middle">2026W31</text>
<text class="mut" x="93.3" y="308.0" font-size="9" text-anchor="middle">not<tspan x="93.3" dy="10">measured</tspan><title>2026W31: not measured</title></text>
<text class="mut" x="151.9" y="342" font-size="10" text-anchor="middle">2026W32</text>
<text class="mut" x="151.9" y="308.0" font-size="9" text-anchor="middle">not<tspan x="151.9" dy="10">measured</tspan><title>2026W32: not measured</title></text>
<text class="mut" x="210.5" y="342" font-size="10" text-anchor="middle">2026W33</text>
<text class="mut" x="210.5" y="308.0" font-size="9" text-anchor="middle">not<tspan x="210.5" dy="10">measured</tspan><title>2026W33: not measured</title></text>
<text class="mut" x="269.1" y="342" font-size="10" text-anchor="middle">2026W34</text>
<text class="mut" x="269.1" y="308.0" font-size="9" text-anchor="middle">not<tspan x="269.1" dy="10">measured</tspan><title>2026W34: not measured</title></text>
<text class="mut" x="327.7" y="342" font-size="10" text-anchor="middle">2026W35</text>
<text class="mut" x="327.7" y="308.0" font-size="9" text-anchor="middle">not<tspan x="327.7" dy="10">measured</tspan><title>2026W35: not measured</title></text>
<text class="mut" x="386.3" y="342" font-size="10" text-anchor="middle">2026W36</text>
<text class="mut" x="386.3" y="308.0" font-size="9" text-anchor="middle">not<tspan x="386.3" dy="10">measured</tspan><title>2026W36: not measured</title></text>
<text class="mut" x="444.9" y="342" font-size="10" text-anchor="middle">2026W37</text>
<text class="mut" x="444.9" y="308.0" font-size="9" text-anchor="middle">not<tspan x="444.9" dy="10">measured</tspan><title>2026W37: not measured</title></text>
<path class="seg s0" d="M484.2,324.0 V242.3 Q484.2,238.3 488.2,238.3 H518.8 Q522.8,238.3 522.8,242.3 V324.0 Z"><title>2026W38, ejected share: 16.1</title></path>
<text class="mut" x="503.5" y="342" font-size="10" text-anchor="middle">2026W38</text>
<text class="fg val" x="503.5" y="233.3" font-size="10" text-anchor="middle">16.1</text>
<path class="seg s0" d="M542.8,324.0 V112.5 Q542.8,108.5 546.8,108.5 H577.4 Q581.4,108.5 581.4,112.5 V324.0 Z"><title>2026W39, ejected share: 40.5</title></path>
<text class="mut" x="562.1" y="342" font-size="10" text-anchor="middle">2026W39</text>
<text class="fg val" x="562.1" y="103.5" font-size="10" text-anchor="middle">40.5</text>
<path class="seg s0" d="M601.4,324.0 V188.1 Q601.4,184.1 605.4,184.1 H636.0 Q640.0,184.1 640.0,188.1 V324.0 Z"><title>2026W40, ejected share: 26.3</title></path>
<text class="mut" x="620.7" y="342" font-size="10" text-anchor="middle">2026W40</text>
<text class="fg val" x="620.7" y="179.1" font-size="10" text-anchor="middle">26.3</text>
<rect class="s0" x="672" y="64" width="11" height="11" rx="2"/>
<text class="fg" y="74" font-size="11"><tspan x="689" dy="0">ejected share</tspan></text>
</svg>
