<svg xmlns="http://www.w3.org/2000/svg" width="860" height="380" viewBox="0 0 860 380" role="img" aria-label="Names by what the tree records about them">
<style>
  .bg{fill:#ffffff} .fg{fill:#1f2328} .mut{fill:#59636e} .grid{stroke:#d1d9e0}
  .seg{stroke:#ffffff;stroke-width:1}
  .val{paint-order:stroke;stroke:#ffffff;stroke-width:3px;stroke-linejoin:round}
  .s0{fill:#2a78d6}  .s1{fill:#eb6834}  .s2{fill:#1baf7a}  .s3{fill:#eda100}  .s4{fill:#e87ba4}
  @media (prefers-color-scheme: dark){
    .bg{fill:#0d1117} .fg{fill:#e6edf3} .mut{fill:#9198a1} .grid{stroke:#30363d}
    .seg{stroke:#0d1117} .val{stroke:#0d1117} .s0{fill:#3987e5} .s1{fill:#d95926} .s2{fill:#199e70} .s3{fill:#c98500} .s4{fill:#d55181}}
  text{font-family:-apple-system,BlinkMacSystemFont,"Segoe UI",Helvetica,Arial,sans-serif}
</style>
<rect class="bg" width="860" height="380"/>
<text class="fg" x="20" y="26" font-size="16" font-weight="600">Names by what the tree records about them</text>
<text class="mut" x="20" y="44" font-size="11">crates, programs, script/ entry points and Cargo packages; provenance lives in the header</text>
<line class="grid" x1="64" y1="324.0" x2="650.0" y2="324.0" stroke-width="1"/>
<text class="mut" x="56" y="327.0" font-size="10" text-anchor="end">0</text>
<line class="grid" x1="64" y1="279.7" x2="650.0" y2="279.7" stroke-width="1"/>
<text class="mut" x="56" y="282.7" font-size="10" text-anchor="end">50</text>
<line class="grid" x1="64" y1="235.3" x2="650.0" y2="235.3" stroke-width="1"/>
<text class="mut" x="56" y="238.3" font-size="10" text-anchor="end">100</text>
<line class="grid" x1="64" y1="191.0" x2="650.0" y2="191.0" stroke-width="1"/>
<text class="mut" x="56" y="194.0" font-size="10" text-anchor="end">150</text>
<line class="grid" x1="64" y1="146.7" x2="650.0" y2="146.7" stroke-width="1"/>
<text class="mut" x="56" y="149.7" font-size="10" text-anchor="end">200</text>
<line class="grid" x1="64" y1="102.3" x2="650.0" y2="102.3" stroke-width="1"/>
<text class="mut" x="56" y="105.3" font-size="10" text-anchor="end">250</text>
<line class="grid" x1="64" y1="58.0" x2="650.0" y2="58.0" stroke-width="1"/>
<text class="mut" x="56" y="61.0" font-size="10" text-anchor="end">300</text>
<rect class="seg s0" x="74.0" y="260.2" width="38.7" height="63.8"><title>2026W32, Ratified: 72</title></rect>
<rect class="seg s1" x="74.0" y="251.3" width="38.7" height="8.9"><title>2026W32, Recorded: 10</title></rect>
<rect class="seg s3" x="74.0" y="210.5" width="38.7" height="40.8"><title>2026W32, Unrecorded: 46</title></rect>
<path class="seg s4" d="M74.0,210.5 V207.4 Q74.0,204.3 77.1,204.3 H109.5 Q112.6,204.3 112.6,207.4 V210.5 Z"><title>2026W32, No provenance block: 7</title></path>
<text class="mut" x="93.3" y="342" font-size="10" text-anchor="middle">2026W32</text>
<text class="fg val" x="93.3" y="199.3" font-size="10" text-anchor="middle">135</text>
<rect class="seg s0" x="132.6" y="258.4" width="38.7" height="65.6"><title>2026W33, Ratified: 74</title></rect>
<rect class="seg s1" x="132.6" y="248.6" width="38.7" height="9.8"><title>2026W33, Recorded: 11</title></rect>
<rect class="seg s2" x="132.6" y="247.7" width="38.7" height="0.9"><title>2026W33, Provisional: 1</title></rect>
<rect class="seg s3" x="132.6" y="195.4" width="38.7" height="52.3"><title>2026W33, Unrecorded: 59</title></rect>
<path class="seg s4" d="M132.6,195.4 V192.3 Q132.6,189.2 135.7,189.2 H168.1 Q171.2,189.2 171.2,192.3 V195.4 Z"><title>2026W33, No provenance block: 7</title></path>
<text class="mut" x="151.9" y="342" font-size="10" text-anchor="middle">2026W33</text>
<text class="fg val" x="151.9" y="184.2" font-size="10" text-anchor="middle">152</text>
<rect class="seg s0" x="191.2" y="235.3" width="38.7" height="88.7"><title>2026W34, Ratified: 100</title></rect>
<rect class="seg s1" x="191.2" y="228.2" width="38.7" height="7.1"><title>2026W34, Recorded: 8</title></rect>
<rect class="seg s2" x="191.2" y="220.3" width="38.7" height="8.0"><title>2026W34, Provisional: 9</title></rect>
<path class="seg s3" d="M191.2,220.3 V172.8 Q191.2,168.8 195.2,168.8 H225.8 Q229.8,168.8 229.8,172.8 V220.3 Z"><title>2026W34, Unrecorded: 58</title></path>
<text class="mut" x="210.5" y="342" font-size="10" text-anchor="middle">2026W34</text>
<text class="fg val" x="210.5" y="163.8" font-size="10" text-anchor="middle">175</text>
<rect class="seg s0" x="249.8" y="234.4" width="38.7" height="89.6"><title>2026W35, Ratified: 101</title></rect>
<rect class="seg s1" x="249.8" y="226.5" width="38.7" height="8.0"><title>2026W35, Recorded: 9</title></rect>
<rect class="seg s2" x="249.8" y="210.5" width="38.7" height="16.0"><title>2026W35, Provisional: 18</title></rect>
<path class="seg s3" d="M249.8,210.5 V161.3 Q249.8,157.3 253.8,157.3 H284.4 Q288.4,157.3 288.4,161.3 V210.5 Z"><title>2026W35, Unrecorded: 60</title></path>
<text class="mut" x="269.1" y="342" font-size="10" text-anchor="middle">2026W35</text>
<text class="fg val" x="269.1" y="152.3" font-size="10" text-anchor="middle">188</text>
<rect class="seg s0" x="308.4" y="231.8" width="38.7" height="92.2"><title>2026W36, Ratified: 104</title></rect>
<rect class="seg s1" x="308.4" y="199.0" width="38.7" height="32.8"><title>2026W36, Recorded: 37</title></rect>
<path class="seg s2" d="M308.4,199.0 V147.1 Q308.4,143.1 312.4,143.1 H343.0 Q347.0,143.1 347.0,147.1 V199.0 Z"><title>2026W36, Provisional: 63</title></path>
<text class="mut" x="327.7" y="342" font-size="10" text-anchor="middle">2026W36</text>
<text class="fg val" x="327.7" y="138.1" font-size="10" text-anchor="middle">204</text>
<rect class="seg s0" x="367.0" y="212.3" width="38.7" height="111.7"><title>2026W37, Ratified: 126</title></rect>
<rect class="seg s1" x="367.0" y="177.7" width="38.7" height="34.6"><title>2026W37, Recorded: 39</title></rect>
<path class="seg s2" d="M367.0,177.7 V145.3 Q367.0,141.3 371.0,141.3 H401.6 Q405.6,141.3 405.6,145.3 V177.7 Z"><title>2026W37, Provisional: 41</title></path>
<text class="mut" x="386.3" y="342" font-size="10" text-anchor="middle">2026W37</text>
<text class="fg val" x="386.3" y="136.3" font-size="10" text-anchor="middle">206</text>
<rect class="seg s0" x="425.6" y="188.3" width="38.7" height="135.7"><title>2026W38, Ratified: 153</title></rect>
<rect class="seg s1" x="425.6" y="164.4" width="38.7" height="23.9"><title>2026W38, Recorded: 27</title></rect>
<rect class="seg s2" x="425.6" y="119.2" width="38.7" height="45.2"><title>2026W38, Provisional: 51</title></rect>
<path class="seg s3" d="M425.6,119.2 V118.7 Q425.6,118.3 426.0,118.3 H463.8 Q464.2,118.3 464.2,118.7 V119.2 Z"><title>2026W38, Unrecorded: 1</title></path>
<text class="mut" x="444.9" y="342" font-size="10" text-anchor="middle">2026W38</text>
<text class="fg val" x="444.9" y="113.3" font-size="10" text-anchor="middle">232</text>
<rect class="seg s0" x="484.2" y="184.8" width="38.7" height="139.2"><title>2026W39, Ratified: 157</title></rect>
<rect class="seg s1" x="484.2" y="160.9" width="38.7" height="23.9"><title>2026W39, Recorded: 27</title></rect>
<rect class="seg s2" x="484.2" y="92.6" width="38.7" height="68.3"><title>2026W39, Provisional: 77</title></rect>
<path class="seg s3" d="M484.2,92.6 V92.1 Q484.2,91.7 484.6,91.7 H522.4 Q522.8,91.7 522.8,92.1 V92.6 Z"><title>2026W39, Unrecorded: 1</title></path>
<text class="mut" x="503.5" y="342" font-size="10" text-anchor="middle">2026W39</text>
<text class="fg val" x="503.5" y="86.7" font-size="10" text-anchor="middle">262</text>
<rect class="seg s0" x="542.8" y="176.8" width="38.7" height="147.2"><title>2026W40, Ratified: 166</title></rect>
<rect class="seg s1" x="542.8" y="152.9" width="38.7" height="23.9"><title>2026W40, Recorded: 27</title></rect>
<rect class="seg s2" x="542.8" y="76.6" width="38.7" height="76.3"><title>2026W40, Provisional: 86</title></rect>
<path class="seg s3" d="M542.8,76.6 V76.2 Q542.8,75.7 543.2,75.7 H581.0 Q581.4,75.7 581.4,76.2 V76.6 Z"><title>2026W40, Unrecorded: 1</title></path>
<text class="mut" x="562.1" y="342" font-size="10" text-anchor="middle">2026W40</text>
<text class="fg val" x="562.1" y="70.7" font-size="10" text-anchor="middle">280</text>
<rect class="seg s0" x="601.4" y="167.9" width="38.7" height="156.1"><title>2026W41, Ratified: 176</title></rect>
<rect class="seg s1" x="601.4" y="144.0" width="38.7" height="23.9"><title>2026W41, Recorded: 27</title></rect>
<rect class="seg s2" x="601.4" y="60.7" width="38.7" height="83.3"><title>2026W41, Provisional: 94</title></rect>
<path class="seg s3" d="M601.4,60.7 V60.2 Q601.4,59.8 601.8,59.8 H639.6 Q640.0,59.8 640.0,60.2 V60.7 Z"><title>2026W41, Unrecorded: 1</title></path>
<text class="mut" x="620.7" y="342" font-size="10" text-anchor="middle">2026W41</text>
<text class="fg val" x="620.7" y="54.8" font-size="10" text-anchor="middle">298</text>
<rect class="s0" x="672" y="64" width="11" height="11" rx="2"/>
<text class="fg" y="74" font-size="11"><tspan x="689" dy="0">Ratified</tspan></text>
<rect class="s1" x="672" y="83" width="11" height="11" rx="2"/>
<text class="fg" y="93" font-size="11"><tspan x="689" dy="0">Recorded</tspan></text>
<rect class="s2" x="672" y="102" width="11" height="11" rx="2"/>
<text class="fg" y="112" font-size="11"><tspan x="689" dy="0">Provisional</tspan></text>
<rect class="s3" x="672" y="121" width="11" height="11" rx="2"/>
<text class="fg" y="131" font-size="11"><tspan x="689" dy="0">Unrecorded</tspan></text>
<rect class="s4" x="672" y="140" width="11" height="11" rx="2"/>
<text class="fg" y="150" font-size="11"><tspan x="689" dy="0">No provenance block</tspan></text>
</svg>
