<svg xmlns="http://www.w3.org/2000/svg" width="860" height="380" viewBox="0 0 860 380" role="img" aria-label="Words over the 3,000-word cap, in thousands">
<style>
  .bg{fill:#ffffff} .fg{fill:#1f2328} .mut{fill:#59636e} .grid{stroke:#d1d9e0}
  .seg{stroke:#ffffff;stroke-width:1}
  .val{paint-order:stroke;stroke:#ffffff;stroke-width:3px;stroke-linejoin:round}
  .s0{fill:#2a78d6}
  @media (prefers-color-scheme: dark){
    .bg{fill:#0d1117} .fg{fill:#e6edf3} .mut{fill:#9198a1} .grid{stroke:#30363d}
    .seg{stroke:#0d1117} .val{stroke:#0d1117} .s0{fill:#3987e5}}
  text{font-family:-apple-system,BlinkMacSystemFont,"Segoe UI",Helvetica,Arial,sans-serif}
</style>
<rect class="bg" width="860" height="380"/>
<text class="fg" x="20" y="26" font-size="16" font-weight="600">Words over the 3,000-word cap, in thousands</text>
<text class="mut" x="20" y="44" font-size="11">the debt the 3,000-word cap names: what would move into appendices. Every document counts, an exempted one included, because the graph exists to show the debt rather than excuse it</text>
<line class="grid" x1="64" y1="324.0" x2="650.0" y2="324.0" stroke-width="1"/>
<text class="mut" x="56" y="327.0" font-size="10" text-anchor="end">0</text>
<line class="grid" x1="64" y1="279.7" x2="650.0" y2="279.7" stroke-width="1"/>
<text class="mut" x="56" y="282.7" font-size="10" text-anchor="end">100</text>
<line class="grid" x1="64" y1="235.3" x2="650.0" y2="235.3" stroke-width="1"/>
<text class="mut" x="56" y="238.3" font-size="10" text-anchor="end">200</text>
<line class="grid" x1="64" y1="191.0" x2="650.0" y2="191.0" stroke-width="1"/>
<text class="mut" x="56" y="194.0" font-size="10" text-anchor="end">300</text>
<line class="grid" x1="64" y1="146.7" x2="650.0" y2="146.7" stroke-width="1"/>
<text class="mut" x="56" y="149.7" font-size="10" text-anchor="end">400</text>
<line class="grid" x1="64" y1="102.3" x2="650.0" y2="102.3" stroke-width="1"/>
<text class="mut" x="56" y="105.3" font-size="10" text-anchor="end">500</text>
<line class="grid" x1="64" y1="58.0" x2="650.0" y2="58.0" stroke-width="1"/>
<text class="mut" x="56" y="61.0" font-size="10" text-anchor="end">600</text>
<path class="seg s0" d="M74.0,324.0 V284.7 Q74.0,280.7 78.0,280.7 H108.6 Q112.6,280.7 112.6,284.7 V324.0 Z"><title>2026W31, words over the cap: 97.6</title></path>
<text class="mut" x="93.3" y="342" font-size="10" text-anchor="middle">2026W31</text>
<text class="fg val" x="93.3" y="275.7" font-size="10" text-anchor="middle">97.6</text>
<path class="seg s0" d="M132.6,324.0 V284.7 Q132.6,280.7 136.6,280.7 H167.2 Q171.2,280.7 171.2,284.7 V324.0 Z"><title>2026W32, words over the cap: 97.7</title></path>
<text class="mut" x="151.9" y="342" font-size="10" text-anchor="middle">2026W32</text>
<text class="fg val" x="151.9" y="275.7" font-size="10" text-anchor="middle">97.7</text>
<path class="seg s0" d="M191.2,324.0 V268.7 Q191.2,264.7 195.2,264.7 H225.8 Q229.8,264.7 229.8,268.7 V324.0 Z"><title>2026W33, words over the cap: 133.8</title></path>
<text class="mut" x="210.5" y="342" font-size="10" text-anchor="middle">2026W33</text>
<text class="fg val" x="210.5" y="259.7" font-size="10" text-anchor="middle">133.8</text>
<path class="seg s0" d="M249.8,324.0 V209.9 Q249.8,205.9 253.8,205.9 H284.4 Q288.4,205.9 288.4,209.9 V324.0 Z"><title>2026W34, words over the cap: 266.3</title></path>
<text class="mut" x="269.1" y="342" font-size="10" text-anchor="middle">2026W34</text>
<text class="fg val" x="269.1" y="200.9" font-size="10" text-anchor="middle">266.3</text>
<path class="seg s0" d="M308.4,324.0 V181.5 Q308.4,177.5 312.4,177.5 H343.0 Q347.0,177.5 347.0,181.5 V324.0 Z"><title>2026W35, words over the cap: 330.4</title></path>
<text class="mut" x="327.7" y="342" font-size="10" text-anchor="middle">2026W35</text>
<text class="fg val" x="327.7" y="172.5" font-size="10" text-anchor="middle">330.4</text>
<path class="seg s0" d="M367.0,324.0 V138.7 Q367.0,134.7 371.0,134.7 H401.6 Q405.6,134.7 405.6,138.7 V324.0 Z"><title>2026W36, words over the cap: 427.1</title></path>
<text class="mut" x="386.3" y="342" font-size="10" text-anchor="middle">2026W36</text>
<text class="fg val" x="386.3" y="129.7" font-size="10" text-anchor="middle">427.1</text>
<path class="seg s0" d="M425.6,324.0 V131.5 Q425.6,127.5 429.6,127.5 H460.2 Q464.2,127.5 464.2,131.5 V324.0 Z"><title>2026W37, words over the cap: 443.3</title></path>
<text class="mut" x="444.9" y="342" font-size="10" text-anchor="middle">2026W37</text>
<text class="fg val" x="444.9" y="122.5" font-size="10" text-anchor="middle">443.3</text>
<path class="seg s0" d="M484.2,324.0 V77.7 Q484.2,73.7 488.2,73.7 H518.8 Q522.8,73.7 522.8,77.7 V324.0 Z"><title>2026W38, words over the cap: 564.5</title></path>
<text class="mut" x="503.5" y="342" font-size="10" text-anchor="middle">2026W38</text>
<text class="fg val" x="503.5" y="68.7" font-size="10" text-anchor="middle">564.5</text>
<path class="seg s0" d="M542.8,324.0 V177.0 Q542.8,173.0 546.8,173.0 H577.4 Q581.4,173.0 581.4,177.0 V324.0 Z"><title>2026W39, words over the cap: 340.6</title></path>
<text class="mut" x="562.1" y="342" font-size="10" text-anchor="middle">2026W39</text>
<text class="fg val" x="562.1" y="168.0" font-size="10" text-anchor="middle">340.6</text>
<path class="seg s0" d="M601.4,324.0 V177.2 Q601.4,173.2 605.4,173.2 H636.0 Q640.0,173.2 640.0,177.2 V324.0 Z"><title>2026W40, words over the cap: 340.2</title></path>
<text class="mut" x="620.7" y="342" font-size="10" text-anchor="middle">2026W40</text>
<text class="fg val" x="620.7" y="168.2" font-size="10" text-anchor="middle">340.2</text>
<rect class="s0" x="672" y="64" width="11" height="11" rx="2"/>
<text class="fg" y="74" font-size="11"><tspan x="689" dy="0">words over the cap</tspan></text>
</svg>
